<svg xmlns="http://www.w3.org/2000/svg" xmlns:xlink="http://www.w3.org/1999/xlink" width="246" zoomAndPan="magnify" viewBox="0 0 184.5 30.000001" height="40" preserveAspectRatio="xMidYMid meet" version="1.0"><defs><clipPath id="5a19d5f99b"><path d="M 177 7 L 181.28125 7 L 181.28125 11 L 177 11 Z M 177 7 " clip-rule="nonzero"/></clipPath><clipPath id="d1379a26a8"><path d="M 2.734375 4 L 35 4 L 35 26 L 2.734375 26 Z M 2.734375 4 " clip-rule="nonzero"/></clipPath></defs><path fill="#222f39" d="M 63.863281 7.195312 L 58.921875 22.042969 L 53.984375 22.042969 L 51.101562 13.390625 L 48.21875 22.042969 L 43.277344 22.042969 L 38.375 7.195312 L 43.316406 7.195312 L 46.25 16.046875 L 49.1875 7.195312 L 53.050781 7.195312 L 55.988281 16.046875 L 58.921875 7.195312 Z M 63.863281 7.195312 " fill-opacity="1" fill-rule="nonzero"/><path fill="#222f39" d="M 80.453125 18.34375 L 80.453125 22.058594 L 65.242188 22.058594 L 65.242188 7.195312 L 80.453125 7.195312 L 80.453125 10.910156 L 69.769531 10.910156 L 69.769531 12.761719 L 79.632812 12.761719 L 79.632812 16.476562 L 69.769531 16.476562 L 69.769531 18.324219 L 80.453125 18.324219 Z M 80.453125 18.34375 " fill-opacity="1" fill-rule="nonzero"/><path fill="#222f39" d="M 99.550781 17.769531 C 99.550781 20.121094 97.636719 22.042969 95.292969 22.042969 L 82.710938 22.042969 L 82.710938 7.195312 L 94.488281 7.195312 C 96.832031 7.195312 98.746094 9.117188 98.746094 11.46875 C 98.746094 12.527344 98.371094 13.496094 97.726562 14.234375 C 98.820312 15.023438 99.550781 16.316406 99.550781 17.769531 Z M 87.21875 10.910156 L 87.21875 12.976562 L 93.179688 12.976562 C 93.753906 12.976562 94.199219 12.507812 94.199219 11.953125 C 94.199219 11.394531 93.734375 10.929688 93.179688 10.929688 L 87.21875 10.929688 Z M 95.042969 17.300781 C 95.042969 16.726562 94.578125 16.28125 94.023438 16.28125 L 87.238281 16.28125 L 87.238281 18.34375 L 94.023438 18.34375 C 94.578125 18.34375 95.042969 17.878906 95.042969 17.300781 Z M 95.042969 17.300781 " fill-opacity="1" fill-rule="nonzero"/><path fill="#222f39" d="M 111.457031 18.34375 L 106.015625 18.34375 L 106.015625 22.058594 L 101.484375 22.058594 L 101.484375 7.195312 L 112.796875 7.195312 C 115.859375 7.195312 118.347656 9.691406 118.347656 12.761719 C 118.347656 14.628906 117.414062 16.28125 116 17.300781 L 118.488281 22.042969 L 113.386719 22.042969 Z M 106.015625 14.628906 L 111.972656 14.628906 C 112.996094 14.628906 113.816406 13.800781 113.816406 12.777344 C 113.816406 11.753906 112.996094 10.929688 111.972656 10.929688 L 106.015625 10.929688 Z M 106.015625 14.628906 " fill-opacity="1" fill-rule="nonzero"/><path fill="#222f39" d="M 129.335938 22.453125 C 123.574219 22.453125 119.867188 20.804688 119.867188 14.628906 C 119.867188 8.847656 123.160156 6.800781 129.335938 6.800781 C 135.492188 6.800781 138.785156 8.867188 138.785156 14.628906 C 138.769531 20.804688 135.492188 22.453125 129.335938 22.453125 Z M 129.335938 10.5 C 126.453125 10.5 124.808594 11.324219 124.808594 14.628906 C 124.808594 17.929688 126.453125 18.757812 129.335938 18.757812 C 132.199219 18.757812 133.847656 17.929688 133.847656 14.628906 C 133.847656 11.324219 132.253906 10.5 129.335938 10.5 Z M 129.335938 10.5 " fill-opacity="1" fill-rule="nonzero"/><path fill="#222f39" d="M 149.703125 22.453125 C 143.941406 22.453125 140.238281 20.804688 140.238281 14.628906 C 140.238281 8.847656 143.53125 6.800781 149.703125 6.800781 C 155.863281 6.800781 159.15625 8.867188 159.15625 14.628906 C 159.15625 20.804688 155.863281 22.453125 149.703125 22.453125 Z M 149.703125 10.5 C 146.824219 10.5 145.175781 11.324219 145.175781 14.628906 C 145.175781 17.929688 146.824219 18.757812 149.703125 18.757812 C 152.570312 18.757812 154.214844 17.929688 154.214844 14.628906 C 154.214844 11.324219 152.621094 10.5 149.703125 10.5 Z M 149.703125 10.5 " fill-opacity="1" fill-rule="nonzero"/><path fill="#222f39" d="M 176.570312 10.910156 L 170.609375 10.910156 L 170.609375 22.042969 L 166.082031 22.042969 L 166.082031 10.910156 L 160.121094 10.910156 L 160.121094 7.195312 L 176.570312 7.195312 Z M 176.570312 10.910156 " fill-opacity="1" fill-rule="nonzero"/><g clip-path="url(#5a19d5f99b)"><path fill="#222f39" d="M 180.992188 10.300781 C 180.652344 10.640625 180.222656 10.804688 179.738281 10.804688 C 179.238281 10.804688 178.808594 10.625 178.46875 10.285156 C 178.128906 9.941406 177.949219 9.511719 177.949219 9.007812 C 177.949219 8.488281 178.128906 8.039062 178.503906 7.699219 C 178.863281 7.375 179.273438 7.214844 179.738281 7.214844 C 180.238281 7.214844 180.652344 7.394531 181.007812 7.734375 C 181.367188 8.074219 181.527344 8.507812 181.527344 9.007812 C 181.527344 9.511719 181.347656 9.941406 180.992188 10.300781 Z M 178.683594 7.96875 C 178.394531 8.253906 178.253906 8.613281 178.253906 9.007812 C 178.253906 9.421875 178.394531 9.78125 178.683594 10.066406 C 178.96875 10.355469 179.328125 10.5 179.722656 10.5 C 180.132812 10.5 180.472656 10.355469 180.757812 10.066406 C 181.046875 9.78125 181.1875 9.421875 181.1875 9.007812 C 181.1875 8.613281 181.046875 8.253906 180.757812 7.96875 C 180.472656 7.664062 180.113281 7.519531 179.722656 7.519531 C 179.328125 7.519531 178.988281 7.664062 178.683594 7.96875 Z M 178.953125 9.996094 L 178.953125 8.003906 C 179.078125 8.003906 179.253906 8.003906 179.507812 8.003906 C 179.757812 8.003906 179.882812 8.003906 179.917969 8.003906 C 180.078125 8.023438 180.203125 8.058594 180.3125 8.109375 C 180.492188 8.199219 180.578125 8.363281 180.578125 8.597656 C 180.578125 8.757812 180.527344 8.882812 180.4375 8.953125 C 180.347656 9.027344 180.222656 9.082031 180.097656 9.082031 C 180.222656 9.097656 180.3125 9.152344 180.382812 9.1875 C 180.507812 9.277344 180.5625 9.441406 180.5625 9.636719 L 180.5625 9.816406 C 180.5625 9.835938 180.5625 9.851562 180.5625 9.871094 C 180.5625 9.886719 180.5625 9.90625 180.578125 9.925781 L 180.597656 9.976562 L 180.097656 9.976562 C 180.078125 9.90625 180.0625 9.816406 180.0625 9.707031 C 180.0625 9.582031 180.042969 9.511719 180.023438 9.457031 C 180.007812 9.386719 179.953125 9.332031 179.882812 9.3125 C 179.847656 9.296875 179.792969 9.296875 179.703125 9.277344 L 179.488281 9.277344 L 179.488281 9.976562 L 178.953125 9.976562 Z M 179.898438 8.398438 C 179.828125 8.363281 179.722656 8.363281 179.59375 8.363281 L 179.46875 8.363281 L 179.46875 8.9375 L 179.667969 8.9375 C 179.792969 8.9375 179.882812 8.917969 179.953125 8.867188 C 180.023438 8.8125 180.0625 8.738281 180.0625 8.632812 C 180.0625 8.523438 180.007812 8.453125 179.898438 8.398438 Z M 179.898438 8.398438 " fill-opacity="1" fill-rule="nonzero"/></g><g clip-path="url(#d1379a26a8)"><path fill="#7dcc26" d="M 6.320312 7.914062 L 16.984375 18.792969 C 16.984375 18.792969 17.933594 19.742188 17.933594 21.269531 C 17.933594 22.203125 17.253906 25.039062 14.175781 25.039062 C 12.671875 25.039062 11.652344 24.105469 11.652344 24.105469 L 4.386719 16.765625 C 4.386719 16.765625 2.898438 15.488281 2.898438 13.710938 C 2.898438 11.449219 2.898438 10.894531 2.898438 9.007812 C 2.898438 7.125 4.777344 7.125 4.777344 7.125 C 5.691406 7.140625 6.320312 7.914062 6.320312 7.914062 Z M 31.414062 7.914062 L 20.746094 18.792969 C 20.746094 18.792969 19.796875 19.742188 19.796875 21.269531 C 19.796875 22.203125 20.476562 25.039062 23.554688 25.039062 C 25.058594 25.039062 26.078125 24.105469 26.078125 24.105469 L 33.34375 16.800781 C 33.34375 16.800781 34.832031 15.523438 34.832031 13.75 C 34.832031 11.484375 34.832031 10.929688 34.832031 9.042969 C 34.832031 7.160156 32.953125 7.160156 32.953125 7.160156 C 32.039062 7.140625 31.414062 7.914062 31.414062 7.914062 Z M 18.867188 4.304688 C 16.269531 4.304688 14.175781 6.40625 14.175781 9.007812 C 14.175781 10.195312 14.605469 11.269531 15.320312 12.097656 L 18.167969 15.292969 C 18.347656 15.488281 18.597656 15.613281 18.867188 15.613281 C 19.132812 15.613281 19.402344 15.488281 19.5625 15.292969 L 22.335938 12.1875 C 23.089844 11.34375 23.554688 10.246094 23.554688 9.027344 C 23.554688 6.421875 21.460938 4.304688 18.867188 4.304688 Z M 18.867188 4.304688 " fill-opacity="1" fill-rule="nonzero"/></g></svg>